<mxfile host="app.diagrams.net" agent="Mozilla/5.0 (X11; Ubuntu; Linux x86_64; rv:133.0) Gecko/20100101 Firefox/133.0" version="25.0.3">
  <diagram name="PÃ¡gina-1" id="JwwNMqe2OmjWvYOx9u_v">
    <mxGraphModel dx="939" dy="528" grid="1" gridSize="10" guides="1" tooltips="1" connect="1" arrows="1" fold="1" page="1" pageScale="1" pageWidth="1654" pageHeight="1169" math="0" shadow="0">
      <root>
        <mxCell id="0" />
        <mxCell id="1" parent="0" />
        <mxCell id="VzM-_lIr884tL9DUQjS0-151" style="edgeStyle=orthogonalEdgeStyle;rounded=1;orthogonalLoop=1;jettySize=auto;html=1;entryX=1;entryY=0.5;entryDx=0;entryDy=0;endArrow=diamondThin;endFill=0;endSize=15;curved=0;exitX=0;exitY=0.5;exitDx=0;exitDy=0;" edge="1" parent="1" source="VzM-_lIr884tL9DUQjS0-2" target="VzM-_lIr884tL9DUQjS0-150">
          <mxGeometry relative="1" as="geometry" />
        </mxCell>
        <mxCell id="VzM-_lIr884tL9DUQjS0-1" value="User" style="swimlane;fontStyle=1;align=center;verticalAlign=top;childLayout=stackLayout;horizontal=1;startSize=26;horizontalStack=0;resizeParent=1;resizeParentMax=0;resizeLast=0;collapsible=1;marginBottom=0;whiteSpace=wrap;html=1;fillColor=#ffe6cc;strokeColor=#d79b00;rounded=1;fontFamily=Cascadia Code;" vertex="1" parent="1">
          <mxGeometry x="1400" y="260" width="160" height="130" as="geometry" />
        </mxCell>
        <mxCell id="VzM-_lIr884tL9DUQjS0-2" value="- id: Long" style="text;strokeColor=none;fillColor=none;align=left;verticalAlign=top;spacingLeft=4;spacingRight=4;overflow=hidden;rotatable=0;points=[[0,0.5],[1,0.5]];portConstraint=eastwest;whiteSpace=wrap;html=1;fontFamily=Cascadia Code;" vertex="1" parent="VzM-_lIr884tL9DUQjS0-1">
          <mxGeometry y="26" width="160" height="26" as="geometry" />
        </mxCell>
        <mxCell id="VzM-_lIr884tL9DUQjS0-5" value="- name: String" style="text;strokeColor=none;fillColor=none;align=left;verticalAlign=top;spacingLeft=4;spacingRight=4;overflow=hidden;rotatable=0;points=[[0,0.5],[1,0.5]];portConstraint=eastwest;whiteSpace=wrap;html=1;fontFamily=Cascadia Code;" vertex="1" parent="VzM-_lIr884tL9DUQjS0-1">
          <mxGeometry y="52" width="160" height="26" as="geometry" />
        </mxCell>
        <mxCell id="VzM-_lIr884tL9DUQjS0-6" value="- email: String" style="text;strokeColor=none;fillColor=none;align=left;verticalAlign=top;spacingLeft=4;spacingRight=4;overflow=hidden;rotatable=0;points=[[0,0.5],[1,0.5]];portConstraint=eastwest;whiteSpace=wrap;html=1;fontFamily=Cascadia Code;" vertex="1" parent="VzM-_lIr884tL9DUQjS0-1">
          <mxGeometry y="78" width="160" height="26" as="geometry" />
        </mxCell>
        <mxCell id="VzM-_lIr884tL9DUQjS0-7" value="- password: String" style="text;strokeColor=none;fillColor=none;align=left;verticalAlign=top;spacingLeft=4;spacingRight=4;overflow=hidden;rotatable=0;points=[[0,0.5],[1,0.5]];portConstraint=eastwest;whiteSpace=wrap;html=1;fontFamily=Cascadia Code;" vertex="1" parent="VzM-_lIr884tL9DUQjS0-1">
          <mxGeometry y="104" width="160" height="26" as="geometry" />
        </mxCell>
        <mxCell id="VzM-_lIr884tL9DUQjS0-8" value="Product" style="swimlane;fontStyle=1;align=center;verticalAlign=top;childLayout=stackLayout;horizontal=1;startSize=26;horizontalStack=0;resizeParent=1;resizeParentMax=0;resizeLast=0;collapsible=1;marginBottom=0;whiteSpace=wrap;html=1;fillColor=#ffe6cc;strokeColor=#d79b00;rounded=1;fontFamily=Cascadia Code;" vertex="1" parent="1">
          <mxGeometry x="350" y="118" width="230" height="312" as="geometry" />
        </mxCell>
        <mxCell id="VzM-_lIr884tL9DUQjS0-9" value="- id: Long" style="text;strokeColor=none;fillColor=none;align=left;verticalAlign=top;spacingLeft=4;spacingRight=4;overflow=hidden;rotatable=0;points=[[0,0.5],[1,0.5]];portConstraint=eastwest;whiteSpace=wrap;html=1;fontFamily=Cascadia Code;" vertex="1" parent="VzM-_lIr884tL9DUQjS0-8">
          <mxGeometry y="26" width="230" height="26" as="geometry" />
        </mxCell>
        <mxCell id="VzM-_lIr884tL9DUQjS0-10" value="- name: String" style="text;strokeColor=none;fillColor=none;align=left;verticalAlign=top;spacingLeft=4;spacingRight=4;overflow=hidden;rotatable=0;points=[[0,0.5],[1,0.5]];portConstraint=eastwest;whiteSpace=wrap;html=1;fontFamily=Cascadia Code;" vertex="1" parent="VzM-_lIr884tL9DUQjS0-8">
          <mxGeometry y="52" width="230" height="26" as="geometry" />
        </mxCell>
        <mxCell id="VzM-_lIr884tL9DUQjS0-11" value="- category: Category " style="text;strokeColor=none;fillColor=none;align=left;verticalAlign=top;spacingLeft=4;spacingRight=4;overflow=hidden;rotatable=0;points=[[0,0.5],[1,0.5]];portConstraint=eastwest;whiteSpace=wrap;html=1;fontFamily=Cascadia Code;" vertex="1" parent="VzM-_lIr884tL9DUQjS0-8">
          <mxGeometry y="78" width="230" height="26" as="geometry" />
        </mxCell>
        <mxCell id="VzM-_lIr884tL9DUQjS0-85" value="- style: Style" style="text;strokeColor=none;fillColor=none;align=left;verticalAlign=top;spacingLeft=4;spacingRight=4;overflow=hidden;rotatable=0;points=[[0,0.5],[1,0.5]];portConstraint=eastwest;whiteSpace=wrap;html=1;fontFamily=Cascadia Code;" vertex="1" parent="VzM-_lIr884tL9DUQjS0-8">
          <mxGeometry y="104" width="230" height="26" as="geometry" />
        </mxCell>
        <mxCell id="VzM-_lIr884tL9DUQjS0-29" value="- images: List&amp;lt;byte[]&amp;gt;" style="text;strokeColor=none;fillColor=none;align=left;verticalAlign=top;spacingLeft=4;spacingRight=4;overflow=hidden;rotatable=0;points=[[0,0.5],[1,0.5]];portConstraint=eastwest;whiteSpace=wrap;html=1;fontFamily=Cascadia Code;" vertex="1" parent="VzM-_lIr884tL9DUQjS0-8">
          <mxGeometry y="130" width="230" height="26" as="geometry" />
        </mxCell>
        <mxCell id="VzM-_lIr884tL9DUQjS0-42" value="- gender: Gender" style="text;strokeColor=none;fillColor=none;align=left;verticalAlign=top;spacingLeft=4;spacingRight=4;overflow=hidden;rotatable=0;points=[[0,0.5],[1,0.5]];portConstraint=eastwest;whiteSpace=wrap;html=1;fontFamily=Cascadia Code;" vertex="1" parent="VzM-_lIr884tL9DUQjS0-8">
          <mxGeometry y="156" width="230" height="26" as="geometry" />
        </mxCell>
        <mxCell id="VzM-_lIr884tL9DUQjS0-43" value="- size: Size" style="text;strokeColor=none;fillColor=none;align=left;verticalAlign=top;spacingLeft=4;spacingRight=4;overflow=hidden;rotatable=0;points=[[0,0.5],[1,0.5]];portConstraint=eastwest;whiteSpace=wrap;html=1;fontFamily=Cascadia Code;" vertex="1" parent="VzM-_lIr884tL9DUQjS0-8">
          <mxGeometry y="182" width="230" height="26" as="geometry" />
        </mxCell>
        <mxCell id="VzM-_lIr884tL9DUQjS0-89" value="- color: Color" style="text;strokeColor=none;fillColor=none;align=left;verticalAlign=top;spacingLeft=4;spacingRight=4;overflow=hidden;rotatable=0;points=[[0,0.5],[1,0.5]];portConstraint=eastwest;whiteSpace=wrap;html=1;fontFamily=Cascadia Code;" vertex="1" parent="VzM-_lIr884tL9DUQjS0-8">
          <mxGeometry y="208" width="230" height="26" as="geometry" />
        </mxCell>
        <mxCell id="VzM-_lIr884tL9DUQjS0-93" value="- material: Material" style="text;strokeColor=none;fillColor=none;align=left;verticalAlign=top;spacingLeft=4;spacingRight=4;overflow=hidden;rotatable=0;points=[[0,0.5],[1,0.5]];portConstraint=eastwest;whiteSpace=wrap;html=1;fontFamily=Cascadia Code;" vertex="1" parent="VzM-_lIr884tL9DUQjS0-8">
          <mxGeometry y="234" width="230" height="26" as="geometry" />
        </mxCell>
        <mxCell id="VzM-_lIr884tL9DUQjS0-97" value="- amount: Long" style="text;strokeColor=none;fillColor=none;align=left;verticalAlign=top;spacingLeft=4;spacingRight=4;overflow=hidden;rotatable=0;points=[[0,0.5],[1,0.5]];portConstraint=eastwest;whiteSpace=wrap;html=1;fontFamily=Cascadia Code;" vertex="1" parent="VzM-_lIr884tL9DUQjS0-8">
          <mxGeometry y="260" width="230" height="26" as="geometry" />
        </mxCell>
        <mxCell id="VzM-_lIr884tL9DUQjS0-98" value="- price: Double" style="text;strokeColor=none;fillColor=none;align=left;verticalAlign=top;spacingLeft=4;spacingRight=4;overflow=hidden;rotatable=0;points=[[0,0.5],[1,0.5]];portConstraint=eastwest;whiteSpace=wrap;html=1;fontFamily=Cascadia Code;" vertex="1" parent="VzM-_lIr884tL9DUQjS0-8">
          <mxGeometry y="286" width="230" height="26" as="geometry" />
        </mxCell>
        <mxCell id="VzM-_lIr884tL9DUQjS0-146" style="edgeStyle=orthogonalEdgeStyle;rounded=1;orthogonalLoop=1;jettySize=auto;html=1;entryX=0;entryY=0.5;entryDx=0;entryDy=0;endArrow=none;endFill=0;curved=0;" edge="1" parent="1" source="VzM-_lIr884tL9DUQjS0-38" target="VzM-_lIr884tL9DUQjS0-42">
          <mxGeometry relative="1" as="geometry" />
        </mxCell>
        <mxCell id="VzM-_lIr884tL9DUQjS0-38" value="&lt;div&gt;&amp;lt;&amp;lt;enumeration&amp;gt;&amp;gt;&lt;/div&gt;&lt;div&gt;&lt;b&gt;Gender&lt;/b&gt;&lt;br&gt;&lt;/div&gt;" style="swimlane;fontStyle=0;align=center;verticalAlign=top;childLayout=stackLayout;horizontal=1;startSize=40;horizontalStack=0;resizeParent=1;resizeParentMax=0;resizeLast=0;collapsible=0;marginBottom=0;html=1;whiteSpace=wrap;fillColor=#ffe6cc;strokeColor=#d79b00;rounded=1;fontFamily=Cascadia Code;" vertex="1" parent="1">
          <mxGeometry x="10" y="222" width="160" height="130" as="geometry" />
        </mxCell>
        <mxCell id="VzM-_lIr884tL9DUQjS0-39" value="&lt;div&gt;MALE&lt;/div&gt;" style="text;html=1;strokeColor=none;fillColor=none;align=left;verticalAlign=middle;spacingLeft=4;spacingRight=4;overflow=hidden;rotatable=0;points=[[0,0.5],[1,0.5]];portConstraint=eastwest;whiteSpace=wrap;fontFamily=Cascadia Code;" vertex="1" parent="VzM-_lIr884tL9DUQjS0-38">
          <mxGeometry y="40" width="160" height="30" as="geometry" />
        </mxCell>
        <mxCell id="VzM-_lIr884tL9DUQjS0-40" value="FEMALE" style="text;html=1;strokeColor=none;fillColor=none;align=left;verticalAlign=middle;spacingLeft=4;spacingRight=4;overflow=hidden;rotatable=0;points=[[0,0.5],[1,0.5]];portConstraint=eastwest;whiteSpace=wrap;fontFamily=Cascadia Code;" vertex="1" parent="VzM-_lIr884tL9DUQjS0-38">
          <mxGeometry y="70" width="160" height="30" as="geometry" />
        </mxCell>
        <mxCell id="VzM-_lIr884tL9DUQjS0-41" value="UNISEX" style="text;html=1;strokeColor=none;fillColor=none;align=left;verticalAlign=middle;spacingLeft=4;spacingRight=4;overflow=hidden;rotatable=0;points=[[0,0.5],[1,0.5]];portConstraint=eastwest;whiteSpace=wrap;fontFamily=Cascadia Code;" vertex="1" parent="VzM-_lIr884tL9DUQjS0-38">
          <mxGeometry y="100" width="160" height="30" as="geometry" />
        </mxCell>
        <mxCell id="VzM-_lIr884tL9DUQjS0-52" value="Category" style="swimlane;fontStyle=1;align=center;verticalAlign=top;childLayout=stackLayout;horizontal=1;startSize=26;horizontalStack=0;resizeParent=1;resizeParentMax=0;resizeLast=0;collapsible=1;marginBottom=0;whiteSpace=wrap;html=1;fillColor=#ffe6cc;strokeColor=#d79b00;rounded=1;fontFamily=Cascadia Code;" vertex="1" parent="1">
          <mxGeometry x="870" y="498" width="200" height="104" as="geometry" />
        </mxCell>
        <mxCell id="VzM-_lIr884tL9DUQjS0-53" value="- id: Long" style="text;strokeColor=none;fillColor=none;align=left;verticalAlign=top;spacingLeft=4;spacingRight=4;overflow=hidden;rotatable=0;points=[[0,0.5],[1,0.5]];portConstraint=eastwest;whiteSpace=wrap;html=1;fontFamily=Cascadia Code;" vertex="1" parent="VzM-_lIr884tL9DUQjS0-52">
          <mxGeometry y="26" width="200" height="26" as="geometry" />
        </mxCell>
        <mxCell id="VzM-_lIr884tL9DUQjS0-72" value="- name: String" style="text;strokeColor=none;fillColor=none;align=left;verticalAlign=top;spacingLeft=4;spacingRight=4;overflow=hidden;rotatable=0;points=[[0,0.5],[1,0.5]];portConstraint=eastwest;whiteSpace=wrap;html=1;fontFamily=Cascadia Code;" vertex="1" parent="VzM-_lIr884tL9DUQjS0-52">
          <mxGeometry y="52" width="200" height="26" as="geometry" />
        </mxCell>
        <mxCell id="VzM-_lIr884tL9DUQjS0-99" value="- sizes: List&amp;lt;Size&amp;gt;" style="text;strokeColor=none;fillColor=none;align=left;verticalAlign=top;spacingLeft=4;spacingRight=4;overflow=hidden;rotatable=0;points=[[0,0.5],[1,0.5]];portConstraint=eastwest;whiteSpace=wrap;html=1;fontFamily=Cascadia Code;" vertex="1" parent="VzM-_lIr884tL9DUQjS0-52">
          <mxGeometry y="78" width="200" height="26" as="geometry" />
        </mxCell>
        <mxCell id="VzM-_lIr884tL9DUQjS0-149" style="edgeStyle=orthogonalEdgeStyle;rounded=1;orthogonalLoop=1;jettySize=auto;html=1;endArrow=diamondThin;endFill=0;endSize=15;curved=0;exitX=1;exitY=0.5;exitDx=0;exitDy=0;" edge="1" parent="1" source="VzM-_lIr884tL9DUQjS0-63">
          <mxGeometry relative="1" as="geometry">
            <mxPoint x="870" y="563" as="targetPoint" />
            <Array as="points">
              <mxPoint x="730" y="699" />
              <mxPoint x="730" y="563" />
            </Array>
          </mxGeometry>
        </mxCell>
        <mxCell id="VzM-_lIr884tL9DUQjS0-62" value="Size" style="swimlane;fontStyle=1;align=center;verticalAlign=top;childLayout=stackLayout;horizontal=1;startSize=26;horizontalStack=0;resizeParent=1;resizeParentMax=0;resizeLast=0;collapsible=1;marginBottom=0;whiteSpace=wrap;html=1;fillColor=#ffe6cc;strokeColor=#d79b00;rounded=1;fontFamily=Cascadia Code;" vertex="1" parent="1">
          <mxGeometry x="360" y="660" width="230" height="104" as="geometry" />
        </mxCell>
        <mxCell id="VzM-_lIr884tL9DUQjS0-63" value="- id: Long" style="text;strokeColor=none;fillColor=none;align=left;verticalAlign=top;spacingLeft=4;spacingRight=4;overflow=hidden;rotatable=0;points=[[0,0.5],[1,0.5]];portConstraint=eastwest;whiteSpace=wrap;html=1;fontFamily=Cascadia Code;" vertex="1" parent="VzM-_lIr884tL9DUQjS0-62">
          <mxGeometry y="26" width="230" height="26" as="geometry" />
        </mxCell>
        <mxCell id="VzM-_lIr884tL9DUQjS0-73" value="- value: String" style="text;strokeColor=none;fillColor=none;align=left;verticalAlign=top;spacingLeft=4;spacingRight=4;overflow=hidden;rotatable=0;points=[[0,0.5],[1,0.5]];portConstraint=eastwest;whiteSpace=wrap;html=1;fontFamily=Cascadia Code;" vertex="1" parent="VzM-_lIr884tL9DUQjS0-62">
          <mxGeometry y="52" width="230" height="26" as="geometry" />
        </mxCell>
        <mxCell id="VzM-_lIr884tL9DUQjS0-74" value="- sizeType: SizeType" style="text;strokeColor=none;fillColor=none;align=left;verticalAlign=top;spacingLeft=4;spacingRight=4;overflow=hidden;rotatable=0;points=[[0,0.5],[1,0.5]];portConstraint=eastwest;whiteSpace=wrap;html=1;fontFamily=Cascadia Code;" vertex="1" parent="VzM-_lIr884tL9DUQjS0-62">
          <mxGeometry y="78" width="230" height="26" as="geometry" />
        </mxCell>
        <mxCell id="VzM-_lIr884tL9DUQjS0-147" style="edgeStyle=orthogonalEdgeStyle;rounded=1;orthogonalLoop=1;jettySize=auto;html=1;entryX=1;entryY=0.5;entryDx=0;entryDy=0;curved=0;endArrow=none;endFill=0;" edge="1" parent="1" source="VzM-_lIr884tL9DUQjS0-75" target="VzM-_lIr884tL9DUQjS0-74">
          <mxGeometry relative="1" as="geometry" />
        </mxCell>
        <mxCell id="VzM-_lIr884tL9DUQjS0-75" value="&lt;div&gt;&amp;lt;&amp;lt;enumeration&amp;gt;&amp;gt;&lt;/div&gt;&lt;div&gt;&lt;b&gt;SizeType&lt;/b&gt;&lt;br&gt;&lt;/div&gt;" style="swimlane;fontStyle=0;align=center;verticalAlign=top;childLayout=stackLayout;horizontal=1;startSize=40;horizontalStack=0;resizeParent=1;resizeParentMax=0;resizeLast=0;collapsible=0;marginBottom=0;html=1;whiteSpace=wrap;fillColor=#ffe6cc;strokeColor=#d79b00;rounded=1;fontFamily=Cascadia Code;" vertex="1" parent="1">
          <mxGeometry x="650" y="784" width="160" height="100" as="geometry" />
        </mxCell>
        <mxCell id="VzM-_lIr884tL9DUQjS0-76" value="&lt;font face=&quot;Cascadia Code&quot;&gt;NUMBER&lt;/font&gt;" style="text;html=1;strokeColor=none;fillColor=none;align=left;verticalAlign=middle;spacingLeft=4;spacingRight=4;overflow=hidden;rotatable=0;points=[[0,0.5],[1,0.5]];portConstraint=eastwest;whiteSpace=wrap;fontFamily=Cascadia Code;" vertex="1" parent="VzM-_lIr884tL9DUQjS0-75">
          <mxGeometry y="40" width="160" height="30" as="geometry" />
        </mxCell>
        <mxCell id="VzM-_lIr884tL9DUQjS0-79" value="LETTER" style="text;html=1;strokeColor=none;fillColor=none;align=left;verticalAlign=middle;spacingLeft=4;spacingRight=4;overflow=hidden;rotatable=0;points=[[0,0.5],[1,0.5]];portConstraint=eastwest;whiteSpace=wrap;fontFamily=Cascadia Code;" vertex="1" parent="VzM-_lIr884tL9DUQjS0-75">
          <mxGeometry y="70" width="160" height="30" as="geometry" />
        </mxCell>
        <mxCell id="VzM-_lIr884tL9DUQjS0-80" value="CategorySize" style="swimlane;fontStyle=1;align=center;verticalAlign=top;childLayout=stackLayout;horizontal=1;startSize=26;horizontalStack=0;resizeParent=1;resizeParentMax=0;resizeLast=0;collapsible=1;marginBottom=0;whiteSpace=wrap;html=1;fillColor=#ffe6cc;strokeColor=#d79b00;rounded=1;fontFamily=Cascadia Code;" vertex="1" parent="1">
          <mxGeometry x="360" y="780" width="230" height="104" as="geometry" />
        </mxCell>
        <mxCell id="VzM-_lIr884tL9DUQjS0-81" value="- id: Long" style="text;strokeColor=none;fillColor=none;align=left;verticalAlign=top;spacingLeft=4;spacingRight=4;overflow=hidden;rotatable=0;points=[[0,0.5],[1,0.5]];portConstraint=eastwest;whiteSpace=wrap;html=1;fontFamily=Cascadia Code;" vertex="1" parent="VzM-_lIr884tL9DUQjS0-80">
          <mxGeometry y="26" width="230" height="26" as="geometry" />
        </mxCell>
        <mxCell id="VzM-_lIr884tL9DUQjS0-82" value="- categoryId: Long" style="text;strokeColor=none;fillColor=none;align=left;verticalAlign=top;spacingLeft=4;spacingRight=4;overflow=hidden;rotatable=0;points=[[0,0.5],[1,0.5]];portConstraint=eastwest;whiteSpace=wrap;html=1;fontFamily=Cascadia Code;" vertex="1" parent="VzM-_lIr884tL9DUQjS0-80">
          <mxGeometry y="52" width="230" height="26" as="geometry" />
        </mxCell>
        <mxCell id="VzM-_lIr884tL9DUQjS0-83" value="- clothingSizeId: Long" style="text;strokeColor=none;fillColor=none;align=left;verticalAlign=top;spacingLeft=4;spacingRight=4;overflow=hidden;rotatable=0;points=[[0,0.5],[1,0.5]];portConstraint=eastwest;whiteSpace=wrap;html=1;fontFamily=Cascadia Code;" vertex="1" parent="VzM-_lIr884tL9DUQjS0-80">
          <mxGeometry y="78" width="230" height="26" as="geometry" />
        </mxCell>
        <mxCell id="VzM-_lIr884tL9DUQjS0-155" style="edgeStyle=orthogonalEdgeStyle;rounded=1;orthogonalLoop=1;jettySize=auto;html=1;entryX=0;entryY=0.5;entryDx=0;entryDy=0;curved=0;endArrow=diamondThin;endFill=0;endSize=15;" edge="1" parent="1" source="VzM-_lIr884tL9DUQjS0-86" target="VzM-_lIr884tL9DUQjS0-85">
          <mxGeometry relative="1" as="geometry" />
        </mxCell>
        <mxCell id="VzM-_lIr884tL9DUQjS0-86" value="Style" style="swimlane;fontStyle=1;align=center;verticalAlign=top;childLayout=stackLayout;horizontal=1;startSize=26;horizontalStack=0;resizeParent=1;resizeParentMax=0;resizeLast=0;collapsible=1;marginBottom=0;whiteSpace=wrap;html=1;fillColor=#ffe6cc;strokeColor=#d79b00;rounded=1;fontFamily=Cascadia Code;" vertex="1" parent="1">
          <mxGeometry x="110" y="50" width="200" height="78" as="geometry" />
        </mxCell>
        <mxCell id="VzM-_lIr884tL9DUQjS0-87" value="- id: Long" style="text;strokeColor=none;fillColor=none;align=left;verticalAlign=top;spacingLeft=4;spacingRight=4;overflow=hidden;rotatable=0;points=[[0,0.5],[1,0.5]];portConstraint=eastwest;whiteSpace=wrap;html=1;fontFamily=Cascadia Code;" vertex="1" parent="VzM-_lIr884tL9DUQjS0-86">
          <mxGeometry y="26" width="200" height="26" as="geometry" />
        </mxCell>
        <mxCell id="VzM-_lIr884tL9DUQjS0-88" value="- name: String" style="text;strokeColor=none;fillColor=none;align=left;verticalAlign=top;spacingLeft=4;spacingRight=4;overflow=hidden;rotatable=0;points=[[0,0.5],[1,0.5]];portConstraint=eastwest;whiteSpace=wrap;html=1;fontFamily=Cascadia Code;" vertex="1" parent="VzM-_lIr884tL9DUQjS0-86">
          <mxGeometry y="52" width="200" height="26" as="geometry" />
        </mxCell>
        <mxCell id="VzM-_lIr884tL9DUQjS0-90" value="Color" style="swimlane;fontStyle=1;align=center;verticalAlign=top;childLayout=stackLayout;horizontal=1;startSize=26;horizontalStack=0;resizeParent=1;resizeParentMax=0;resizeLast=0;collapsible=1;marginBottom=0;whiteSpace=wrap;html=1;fillColor=#ffe6cc;strokeColor=#d79b00;rounded=1;fontFamily=Cascadia Code;" vertex="1" parent="1">
          <mxGeometry x="30" y="420" width="200" height="78" as="geometry" />
        </mxCell>
        <mxCell id="VzM-_lIr884tL9DUQjS0-91" value="- id: Long" style="text;strokeColor=none;fillColor=none;align=left;verticalAlign=top;spacingLeft=4;spacingRight=4;overflow=hidden;rotatable=0;points=[[0,0.5],[1,0.5]];portConstraint=eastwest;whiteSpace=wrap;html=1;fontFamily=Cascadia Code;" vertex="1" parent="VzM-_lIr884tL9DUQjS0-90">
          <mxGeometry y="26" width="200" height="26" as="geometry" />
        </mxCell>
        <mxCell id="VzM-_lIr884tL9DUQjS0-92" value="- name: String" style="text;strokeColor=none;fillColor=none;align=left;verticalAlign=top;spacingLeft=4;spacingRight=4;overflow=hidden;rotatable=0;points=[[0,0.5],[1,0.5]];portConstraint=eastwest;whiteSpace=wrap;html=1;fontFamily=Cascadia Code;" vertex="1" parent="VzM-_lIr884tL9DUQjS0-90">
          <mxGeometry y="52" width="200" height="26" as="geometry" />
        </mxCell>
        <mxCell id="VzM-_lIr884tL9DUQjS0-158" value="" style="edgeStyle=orthogonalEdgeStyle;rounded=1;orthogonalLoop=1;jettySize=auto;html=1;entryX=0;entryY=0.5;entryDx=0;entryDy=0;curved=0;endArrow=diamondThin;endFill=0;endSize=15;" edge="1" parent="1" source="VzM-_lIr884tL9DUQjS0-94" target="VzM-_lIr884tL9DUQjS0-93">
          <mxGeometry relative="1" as="geometry" />
        </mxCell>
        <mxCell id="VzM-_lIr884tL9DUQjS0-94" value="Material" style="swimlane;fontStyle=1;align=center;verticalAlign=top;childLayout=stackLayout;horizontal=1;startSize=26;horizontalStack=0;resizeParent=1;resizeParentMax=0;resizeLast=0;collapsible=1;marginBottom=0;whiteSpace=wrap;html=1;fillColor=#ffe6cc;strokeColor=#d79b00;rounded=1;fontFamily=Cascadia Code;" vertex="1" parent="1">
          <mxGeometry x="150" y="540" width="200" height="78" as="geometry" />
        </mxCell>
        <mxCell id="VzM-_lIr884tL9DUQjS0-95" value="- id: Long" style="text;strokeColor=none;fillColor=none;align=left;verticalAlign=top;spacingLeft=4;spacingRight=4;overflow=hidden;rotatable=0;points=[[0,0.5],[1,0.5]];portConstraint=eastwest;whiteSpace=wrap;html=1;fontFamily=Cascadia Code;" vertex="1" parent="VzM-_lIr884tL9DUQjS0-94">
          <mxGeometry y="26" width="200" height="26" as="geometry" />
        </mxCell>
        <mxCell id="VzM-_lIr884tL9DUQjS0-96" value="- name: String" style="text;strokeColor=none;fillColor=none;align=left;verticalAlign=top;spacingLeft=4;spacingRight=4;overflow=hidden;rotatable=0;points=[[0,0.5],[1,0.5]];portConstraint=eastwest;whiteSpace=wrap;html=1;fontFamily=Cascadia Code;" vertex="1" parent="VzM-_lIr884tL9DUQjS0-94">
          <mxGeometry y="52" width="200" height="26" as="geometry" />
        </mxCell>
        <mxCell id="VzM-_lIr884tL9DUQjS0-100" value="Supply" style="swimlane;fontStyle=1;align=center;verticalAlign=top;childLayout=stackLayout;horizontal=1;startSize=26;horizontalStack=0;resizeParent=1;resizeParentMax=0;resizeLast=0;collapsible=1;marginBottom=0;whiteSpace=wrap;html=1;fillColor=#ffe6cc;strokeColor=#d79b00;rounded=1;fontFamily=Cascadia Code;" vertex="1" parent="1">
          <mxGeometry x="880" y="30" width="230" height="208" as="geometry" />
        </mxCell>
        <mxCell id="VzM-_lIr884tL9DUQjS0-101" value="- id: Long" style="text;strokeColor=none;fillColor=none;align=left;verticalAlign=top;spacingLeft=4;spacingRight=4;overflow=hidden;rotatable=0;points=[[0,0.5],[1,0.5]];portConstraint=eastwest;whiteSpace=wrap;html=1;fontFamily=Cascadia Code;" vertex="1" parent="VzM-_lIr884tL9DUQjS0-100">
          <mxGeometry y="26" width="230" height="26" as="geometry" />
        </mxCell>
        <mxCell id="VzM-_lIr884tL9DUQjS0-112" value="- product: Product" style="text;strokeColor=none;fillColor=none;align=left;verticalAlign=top;spacingLeft=4;spacingRight=4;overflow=hidden;rotatable=0;points=[[0,0.5],[1,0.5]];portConstraint=eastwest;whiteSpace=wrap;html=1;fontFamily=Cascadia Code;" vertex="1" parent="VzM-_lIr884tL9DUQjS0-100">
          <mxGeometry y="52" width="230" height="26" as="geometry" />
        </mxCell>
        <mxCell id="VzM-_lIr884tL9DUQjS0-117" value="- supplier: Supplier" style="text;strokeColor=none;fillColor=none;align=left;verticalAlign=top;spacingLeft=4;spacingRight=4;overflow=hidden;rotatable=0;points=[[0,0.5],[1,0.5]];portConstraint=eastwest;whiteSpace=wrap;html=1;fontFamily=Cascadia Code;" vertex="1" parent="VzM-_lIr884tL9DUQjS0-100">
          <mxGeometry y="78" width="230" height="26" as="geometry" />
        </mxCell>
        <mxCell id="VzM-_lIr884tL9DUQjS0-118" value="- status: String" style="text;strokeColor=none;fillColor=none;align=left;verticalAlign=top;spacingLeft=4;spacingRight=4;overflow=hidden;rotatable=0;points=[[0,0.5],[1,0.5]];portConstraint=eastwest;whiteSpace=wrap;html=1;fontFamily=Cascadia Code;" vertex="1" parent="VzM-_lIr884tL9DUQjS0-100">
          <mxGeometry y="104" width="230" height="26" as="geometry" />
        </mxCell>
        <mxCell id="VzM-_lIr884tL9DUQjS0-127" value="- date: LocalDate" style="text;strokeColor=none;fillColor=none;align=left;verticalAlign=top;spacingLeft=4;spacingRight=4;overflow=hidden;rotatable=0;points=[[0,0.5],[1,0.5]];portConstraint=eastwest;whiteSpace=wrap;html=1;fontFamily=Cascadia Code;" vertex="1" parent="VzM-_lIr884tL9DUQjS0-100">
          <mxGeometry y="130" width="230" height="26" as="geometry" />
        </mxCell>
        <mxCell id="VzM-_lIr884tL9DUQjS0-128" value="- price: Double" style="text;strokeColor=none;fillColor=none;align=left;verticalAlign=top;spacingLeft=4;spacingRight=4;overflow=hidden;rotatable=0;points=[[0,0.5],[1,0.5]];portConstraint=eastwest;whiteSpace=wrap;html=1;fontFamily=Cascadia Code;" vertex="1" parent="VzM-_lIr884tL9DUQjS0-100">
          <mxGeometry y="156" width="230" height="26" as="geometry" />
        </mxCell>
        <mxCell id="VzM-_lIr884tL9DUQjS0-129" value="- deliveryPrice: Double" style="text;strokeColor=none;fillColor=none;align=left;verticalAlign=top;spacingLeft=4;spacingRight=4;overflow=hidden;rotatable=0;points=[[0,0.5],[1,0.5]];portConstraint=eastwest;whiteSpace=wrap;html=1;fontFamily=Cascadia Code;" vertex="1" parent="VzM-_lIr884tL9DUQjS0-100">
          <mxGeometry y="182" width="230" height="26" as="geometry" />
        </mxCell>
        <mxCell id="VzM-_lIr884tL9DUQjS0-113" value="Supplier" style="swimlane;fontStyle=1;align=center;verticalAlign=top;childLayout=stackLayout;horizontal=1;startSize=26;horizontalStack=0;resizeParent=1;resizeParentMax=0;resizeLast=0;collapsible=1;marginBottom=0;whiteSpace=wrap;html=1;fillColor=#ffe6cc;strokeColor=#d79b00;rounded=1;fontFamily=Cascadia Code;" vertex="1" parent="1">
          <mxGeometry x="1250" y="30" width="230" height="78" as="geometry" />
        </mxCell>
        <mxCell id="VzM-_lIr884tL9DUQjS0-114" value="- id: Long" style="text;strokeColor=none;fillColor=none;align=left;verticalAlign=top;spacingLeft=4;spacingRight=4;overflow=hidden;rotatable=0;points=[[0,0.5],[1,0.5]];portConstraint=eastwest;whiteSpace=wrap;html=1;fontFamily=Cascadia Code;" vertex="1" parent="VzM-_lIr884tL9DUQjS0-113">
          <mxGeometry y="26" width="230" height="26" as="geometry" />
        </mxCell>
        <mxCell id="VzM-_lIr884tL9DUQjS0-115" value="- name: String" style="text;strokeColor=none;fillColor=none;align=left;verticalAlign=top;spacingLeft=4;spacingRight=4;overflow=hidden;rotatable=0;points=[[0,0.5],[1,0.5]];portConstraint=eastwest;whiteSpace=wrap;html=1;fontFamily=Cascadia Code;" vertex="1" parent="VzM-_lIr884tL9DUQjS0-113">
          <mxGeometry y="52" width="230" height="26" as="geometry" />
        </mxCell>
        <mxCell id="VzM-_lIr884tL9DUQjS0-130" value="Sale" style="swimlane;fontStyle=1;align=center;verticalAlign=top;childLayout=stackLayout;horizontal=1;startSize=26;horizontalStack=0;resizeParent=1;resizeParentMax=0;resizeLast=0;collapsible=1;marginBottom=0;whiteSpace=wrap;html=1;fillColor=#ffe6cc;strokeColor=#d79b00;rounded=1;fontFamily=Cascadia Code;" vertex="1" parent="1">
          <mxGeometry x="1020" y="260" width="230" height="182" as="geometry" />
        </mxCell>
        <mxCell id="VzM-_lIr884tL9DUQjS0-131" value="- id: Long" style="text;strokeColor=none;fillColor=none;align=left;verticalAlign=top;spacingLeft=4;spacingRight=4;overflow=hidden;rotatable=0;points=[[0,0.5],[1,0.5]];portConstraint=eastwest;whiteSpace=wrap;html=1;fontFamily=Cascadia Code;" vertex="1" parent="VzM-_lIr884tL9DUQjS0-130">
          <mxGeometry y="26" width="230" height="26" as="geometry" />
        </mxCell>
        <mxCell id="VzM-_lIr884tL9DUQjS0-142" value="- product: Product" style="text;strokeColor=none;fillColor=none;align=left;verticalAlign=top;spacingLeft=4;spacingRight=4;overflow=hidden;rotatable=0;points=[[0,0.5],[1,0.5]];portConstraint=eastwest;whiteSpace=wrap;html=1;fontFamily=Cascadia Code;" vertex="1" parent="VzM-_lIr884tL9DUQjS0-130">
          <mxGeometry y="52" width="230" height="26" as="geometry" />
        </mxCell>
        <mxCell id="VzM-_lIr884tL9DUQjS0-143" value="- amount: Long" style="text;strokeColor=none;fillColor=none;align=left;verticalAlign=top;spacingLeft=4;spacingRight=4;overflow=hidden;rotatable=0;points=[[0,0.5],[1,0.5]];portConstraint=eastwest;whiteSpace=wrap;html=1;fontFamily=Cascadia Code;" vertex="1" parent="VzM-_lIr884tL9DUQjS0-130">
          <mxGeometry y="78" width="230" height="26" as="geometry" />
        </mxCell>
        <mxCell id="VzM-_lIr884tL9DUQjS0-144" value="- dateTime: LocalDateTime" style="text;strokeColor=none;fillColor=none;align=left;verticalAlign=top;spacingLeft=4;spacingRight=4;overflow=hidden;rotatable=0;points=[[0,0.5],[1,0.5]];portConstraint=eastwest;whiteSpace=wrap;html=1;fontFamily=Cascadia Code;" vertex="1" parent="VzM-_lIr884tL9DUQjS0-130">
          <mxGeometry y="104" width="230" height="26" as="geometry" />
        </mxCell>
        <mxCell id="VzM-_lIr884tL9DUQjS0-145" value="- /totalPrice: Double" style="text;strokeColor=none;fillColor=none;align=left;verticalAlign=top;spacingLeft=4;spacingRight=4;overflow=hidden;rotatable=0;points=[[0,0.5],[1,0.5]];portConstraint=eastwest;whiteSpace=wrap;html=1;fontFamily=Cascadia Code;" vertex="1" parent="VzM-_lIr884tL9DUQjS0-130">
          <mxGeometry y="130" width="230" height="26" as="geometry" />
        </mxCell>
        <mxCell id="VzM-_lIr884tL9DUQjS0-150" value="- vendor: User" style="text;strokeColor=none;fillColor=none;align=left;verticalAlign=top;spacingLeft=4;spacingRight=4;overflow=hidden;rotatable=0;points=[[0,0.5],[1,0.5]];portConstraint=eastwest;whiteSpace=wrap;html=1;fontFamily=Cascadia Code;" vertex="1" parent="VzM-_lIr884tL9DUQjS0-130">
          <mxGeometry y="156" width="230" height="26" as="geometry" />
        </mxCell>
        <mxCell id="VzM-_lIr884tL9DUQjS0-152" style="edgeStyle=orthogonalEdgeStyle;rounded=1;orthogonalLoop=1;jettySize=auto;html=1;entryX=1;entryY=0.5;entryDx=0;entryDy=0;curved=0;endArrow=diamondThin;endFill=0;endSize=15;exitX=0;exitY=0.5;exitDx=0;exitDy=0;" edge="1" parent="1" source="VzM-_lIr884tL9DUQjS0-114" target="VzM-_lIr884tL9DUQjS0-117">
          <mxGeometry relative="1" as="geometry" />
        </mxCell>
        <mxCell id="VzM-_lIr884tL9DUQjS0-153" style="edgeStyle=orthogonalEdgeStyle;rounded=1;orthogonalLoop=1;jettySize=auto;html=1;entryX=1;entryY=0.5;entryDx=0;entryDy=0;curved=0;endArrow=diamondThin;endFill=0;endSize=15;" edge="1" parent="1" source="VzM-_lIr884tL9DUQjS0-53" target="VzM-_lIr884tL9DUQjS0-11">
          <mxGeometry relative="1" as="geometry" />
        </mxCell>
        <mxCell id="VzM-_lIr884tL9DUQjS0-154" style="edgeStyle=orthogonalEdgeStyle;rounded=1;orthogonalLoop=1;jettySize=auto;html=1;curved=0;endArrow=diamondThin;endFill=0;endSize=15;entryX=1;entryY=0.5;entryDx=0;entryDy=0;exitX=0.5;exitY=0;exitDx=0;exitDy=0;" edge="1" parent="1" source="VzM-_lIr884tL9DUQjS0-62" target="VzM-_lIr884tL9DUQjS0-43">
          <mxGeometry relative="1" as="geometry">
            <mxPoint x="660" y="300" as="targetPoint" />
            <Array as="points">
              <mxPoint x="475" y="470" />
              <mxPoint x="670" y="470" />
              <mxPoint x="670" y="313" />
            </Array>
          </mxGeometry>
        </mxCell>
        <mxCell id="VzM-_lIr884tL9DUQjS0-156" style="edgeStyle=orthogonalEdgeStyle;rounded=1;orthogonalLoop=1;jettySize=auto;html=1;entryX=0;entryY=0.5;entryDx=0;entryDy=0;curved=0;endArrow=diamondThin;endFill=0;endSize=15;exitX=0.5;exitY=0;exitDx=0;exitDy=0;" edge="1" parent="1" source="VzM-_lIr884tL9DUQjS0-90" target="VzM-_lIr884tL9DUQjS0-89">
          <mxGeometry relative="1" as="geometry">
            <mxPoint x="660" y="704" as="sourcePoint" />
            <mxPoint x="380" y="390" as="targetPoint" />
            <Array as="points">
              <mxPoint x="130" y="390" />
              <mxPoint x="220" y="390" />
              <mxPoint x="220" y="339" />
            </Array>
          </mxGeometry>
        </mxCell>
        <mxCell id="VzM-_lIr884tL9DUQjS0-159" style="edgeStyle=orthogonalEdgeStyle;rounded=1;orthogonalLoop=1;jettySize=auto;html=1;entryX=0;entryY=0.5;entryDx=0;entryDy=0;endArrow=diamondThin;endFill=0;curved=0;endSize=15;" edge="1" parent="1" source="VzM-_lIr884tL9DUQjS0-9" target="VzM-_lIr884tL9DUQjS0-112">
          <mxGeometry relative="1" as="geometry" />
        </mxCell>
        <mxCell id="VzM-_lIr884tL9DUQjS0-160" style="edgeStyle=orthogonalEdgeStyle;rounded=1;orthogonalLoop=1;jettySize=auto;html=1;entryX=0;entryY=0.5;entryDx=0;entryDy=0;curved=0;endArrow=diamondThin;endFill=0;endSize=15;" edge="1" parent="1" source="VzM-_lIr884tL9DUQjS0-9" target="VzM-_lIr884tL9DUQjS0-142">
          <mxGeometry relative="1" as="geometry" />
        </mxCell>
      </root>
    </mxGraphModel>
  </diagram>
</mxfile>
